<svg xmlns="http://www.w3.org/2000/svg" width="12" height="10" viewBox="0 0 11 9">
  <path d="M0.103125 1.92032C0.0343746 1.83553 0 1.70836 0 1.53878C0 1.34095 0.0572911 1.17844 0.171875 1.05126C0.286459 0.924078 0.423958 0.860489 0.584375 0.860489H10.4156C10.576 0.860489 10.7135 0.924078 10.8281 1.05126C10.9427 1.17844 11 1.34095 11 1.53878C11 1.68009 10.9656 1.79314 10.8969 1.87793L10.8281 2.00511L6.15312 8.61846C5.94687 8.87282 5.72917 9 5.5 9C5.27083 9 5.05313 8.87282 4.84688 8.61846L0.171875 2.00511L0.103125 1.92032Z" fill="currentColor"></path>
</svg>
